<svg height="512" viewBox="0 0 64 64" width="512" xmlns="http://www.w3.org/2000/svg"><g id="book-books-study-education-school-book_store" data-name="book-books-study-education-school-book store"><path d="m46 9h12v44h-12z" fill="#57a4ff"/><path d="m46 17h12v5h-12z" fill="#64c1f7"/><path d="m32 3h14v44h-14z" fill="#9e2849"/><path d="m32 12h14v36h-14z" fill="#dd636e"/><path d="m36 19h6v28h-6z" fill="#f09898"/><path d="m20 8h12v39h-12z" fill="#499f96"/><path d="m21 16h11v31h-11z" fill="#6bc19a"/><path d="m9 6h12v43h-12z" fill="#f3ac3c"/><path d="m9 15h12v6h-12z" fill="#f7d880"/><path d="m55 58h6v3h-51a7 7 0 0 1 -7-7 7 7 0 0 1 7-7h51v3h-6z" fill="#cc8355"/><path d="m12 50h47a0 0 0 0 1 0 0v8a0 0 0 0 1 0 0h-47a4 4 0 0 1 -4-4 4 4 0 0 1 4-4z" fill="#e9e9ea"/><path d="m61 51a1 1 0 0 0 1-1v-3a1 1 0 0 0 -1-1h-2v-37a1 1 0 0 0 -1-1h-11v-5a1 1 0 0 0 -1-1h-14a1 1 0 0 0 -1 1v4h-9v-1a1 1 0 0 0 -1-1h-12a1 1 0 0 0 -1 1v40.26a8 8 0 0 0 2 15.74h51a1 1 0 0 0 1-1v-3a1 1 0 0 0 -1-1h-1v-6zm-14-41h10v6h-10zm0 8h10v3h-10zm0 5h10v23h-10zm-14-19h12v7h-12zm0 9h12v33h-2v-27a1 1 0 0 0 -1-1h-6a1 1 0 0 0 -1 1v27h-2zm8 7v26h-4v-26zm-19-11h9v6h-9zm0 8h9v29h-9zm-12-10h10v7h-10zm0 9h10v4h-10zm0 6h10v24h-10zm2 27a5 5 0 0 0 0 10h48v1h-50a6 6 0 0 1 0-12h50v1zm46 2v6h-2v-6zm-4 4v2h-42a3 3 0 0 1 0-6h42v2h-40v2z"/><path d="m12 25h6v2h-6z"/><path d="m12 29h6v2h-6z"/></g></svg>