<svg height="512" viewBox="0 0 512 512" width="512" xmlns="http://www.w3.org/2000/svg"><g id="BULINE"><circle cx="256" cy="256" fill="#3586cb" r="256"/></g><g id="Icons"><path d="m397 165.77v39.29a23.66 23.66 0 1 1 -47.32 0v-39.29c0-3-.14-5.92-.41-8.82a94 94 0 0 0 -187.07 0c-.26 2.9-.41 5.85-.41 8.82v39.29a23.66 23.66 0 1 1 -47.31 0v-39.29c0-3 .09-5.9.28-8.82 4.56-73.8 66.06-132.44 141-132.44a140.59 140.59 0 0 1 50.81 9.49 142 142 0 0 1 78.24 74.42 140 140 0 0 1 11.92 48.58c.19 2.87.27 5.8.27 8.77z" fill="#32314b"/><rect fill="#db1b1b" height="246.06" rx="22.08" width="328.08" x="90.51" y="205.06"/><path d="m418.59 426.93v2.07a22.07 22.07 0 0 1 -22.08 22.08h-283.91a22.08 22.08 0 0 1 -22.09-22.08v-201.86a22.09 22.09 0 0 1 22.09-22.08h3.15v199.79a22.09 22.09 0 0 0 22.08 22.08z" fill="#c61c1c"/><circle cx="346.04" cy="247.93" fill="#e23b3b" r="20.91"/><circle cx="389.6" cy="247.93" fill="#e23b3b" r="14.81"/><path d="m162.22 157c-.27 2.9-.41 5.85-.41 8.81v39.3h-47.32v-39.3c0-3 .09-5.89.28-8.81z" fill="#27273d"/><path d="m397 165.76v39.3h-47.3v-39.3c0-3-.15-5.91-.41-8.81h47.44c.19 2.92.27 5.85.27 8.81z" fill="#27273d"/><path d="m384.81 108.38q-2.55.18-5.13.18a73.13 73.13 0 0 1 -73.13-73.13c0-.49 0-1 0-1.47a142 142 0 0 1 78.26 74.42z" fill="#3e436d"/><rect fill="#f6d372" height="63.67" rx="31.83" width="301.6" x="104.95" y="295.76"/><g fill="#32314b"><path d="m159 327.59 11.82-11.82a6.43 6.43 0 0 0 -9.09-9.09l-11.73 11.82-11.82-11.82a6.43 6.43 0 0 0 -9.1 9.09l11.82 11.82-11.9 11.82a6.43 6.43 0 0 0 9.1 9.1l11.9-11.82 11.82 11.82a6.43 6.43 0 1 0 9.09-9.1z"/><path d="m212.75 327.59 11.82-11.82a6.43 6.43 0 0 0 -9.1-9.09l-11.82 11.82-11.82-11.82a6.43 6.43 0 0 0 -9.09 9.09l11.82 11.82-11.82 11.82a6.43 6.43 0 0 0 9.09 9.1l11.82-11.82 11.82 11.82a6.43 6.43 0 1 0 9.1-9.1z"/><path d="m266.45 327.59 11.82-11.82a6.43 6.43 0 0 0 -9.09-9.09l-11.82 11.82-11.82-11.82a6.43 6.43 0 0 0 -9.1 9.09l11.82 11.82-11.82 11.82a6.43 6.43 0 0 0 9.1 9.1l11.82-11.82 11.82 11.82a6.43 6.43 0 1 0 9.09-9.1z"/><path d="m320.16 327.59 11.84-11.82a6.43 6.43 0 0 0 -9.1-9.09l-11.84 11.82-11.82-11.82a6.43 6.43 0 0 0 -9.09 9.09l11.85 11.82-11.82 11.82a6.43 6.43 0 0 0 9.09 9.1l11.82-11.82 11.82 11.82a6.43 6.43 0 1 0 9.1-9.1z"/><path d="m373.86 327.59 11.83-11.82a6.43 6.43 0 0 0 -9.1-9.09l-11.82 11.82-11.77-11.82a6.43 6.43 0 0 0 -9.1 9.09l11.82 11.82-11.82 11.82a6.43 6.43 0 0 0 9.1 9.1l11.82-11.82 11.82 11.82a6.43 6.43 0 1 0 9.1-9.1z"/></g></g></svg>